<svg id="ek0FMUvPhcu1" xmlns="http://www.w3.org/2000/svg" xmlns:xlink="http://www.w3.org/1999/xlink" viewBox="0 0 48 48" shape-rendering="geometricPrecision" text-rendering="geometricPrecision" style="background-color:#5a82a4"><path d="M5,39.218583L5,5h8v38c-4,0-7.416387-1.708055-7.973333-3.781417h-.026667Z" transform="matrix(0 1-1 0 48 0)" fill="#fff" stroke-width="0"/><path d="M5,39.218583L5,5h8v38c-4,0-7.416387-1.708055-7.973333-3.781417h-.026667Z" transform="matrix(0 1-1 0 48 10)" fill="#fff" stroke-width="0"/><path d="M5,39.218583L5,5h8v38c-4,0-7.416387-1.708055-7.973333-3.781417h-.026667Z" transform="matrix(0 1-1 0 48 20)" fill="#fff" stroke-width="0"/><path d="M5,39.218583L5,5h8v38c-4,0-7.416387-1.708055-7.973333-3.781417h-.026667Z" transform="matrix(0 1-1 0 48 30)" fill="#fff" stroke-width="0"/></svg>
