<svg id="eRKn6Gi0UYF1" xmlns="http://www.w3.org/2000/svg" xmlns:xlink="http://www.w3.org/1999/xlink" viewBox="0 0 48 48" shape-rendering="geometricPrecision" text-rendering="geometricPrecision" style="background-color:#5a82a4"><rect width="30" height="38" rx="0" ry="0" transform="translate(13 5)" fill="#fff" stroke-width="0"/><path d="M5.27272,9.635634L14,5v8.484653v0v8.484653v0v9.009934L5.27272,26.60495l8.21848-4.36538-8.21848-4.119274l8.21848-4.365379L5.27272,9.635634Z" transform="matrix(1 0 0 1.270245-.77272-1.351225)" fill="#fff" stroke-width="0"/><path d="" fill="none" stroke="#3f5787" stroke-width="0.5"/><polygon points="3.287672,-9.505611 0,0 -3.287674,-3.767122 3.287672,-9.505611" transform="matrix(-.753424-.657535 0.657535-.753424 13.22728 38)" fill="#fff" stroke-width="0"/><line x1="-14.499999" y1="0" x2="16.500001" y2="0" transform="translate(26.499999 38)" fill="none" stroke="#5a82a4" stroke-width="0.48"/><line x1="-14.499999" y1="0" x2="16.500001" y2="0" transform="translate(26.499999 27)" fill="none" stroke="#5a82a4" stroke-width="0.48"/><line x1="-14.499999" y1="0" x2="16.500001" y2="0" transform="translate(26.499999 16.1)" fill="none" stroke="#5a82a4" stroke-width="0.48"/><line x1="-18.86364" y1="0.105759" x2="20.13636" y2="-0.10576" transform="translate(23.36364 10.80576)" fill="none" stroke="#5a82a4" stroke-width="0.48"/><line x1="-18.86364" y1="0.105759" x2="20.13636" y2="-0.10576" transform="translate(23.36364 21.60576)" fill="none" stroke="#5a82a4" stroke-width="0.48"/><line x1="-18.86364" y1="0.105759" x2="20.13636" y2="-0.10576" transform="translate(23.36364 32.40576)" fill="none" stroke="#5a82a4" stroke-width="0.48"/></svg>
