<svg id="eBfg0hrA5N81" xmlns="http://www.w3.org/2000/svg" xmlns:xlink="http://www.w3.org/1999/xlink" viewBox="0 0 48 48" shape-rendering="geometricPrecision" text-rendering="geometricPrecision" style="background-color:#5a82a4"><path d="M5,40L5,5h6v38.86777c-3,0-5.56229-1.74706-5.98-3.86777L5,40Z" fill="#fff" stroke-width="0"/><path d="M5,40L5,5h6v38.86777c-3,0-5.56229-1.74706-5.98-3.86777L5,40Z" transform="translate(8 0)" fill="#fff" stroke-width="0"/><path d="M5,40L5,5h6v38.86777c-3,0-5.56229-1.74706-5.98-3.86777L5,40Z" transform="translate(16 0)" fill="#fff" stroke-width="0"/><path d="M5,40L5,5h6v38.86777c-3,0-5.56229-1.74706-5.98-3.86777L5,40Z" transform="translate(24 0)" fill="#fff" stroke-width="0"/><path d="M5,40L5,5h6v38.86777c-3,0-5.56229-1.74706-5.98-3.86777L5,40Z" transform="translate(32 0)" fill="#fff" stroke-width="0"/></svg>
