<svg id="eqiuktVU20M1" xmlns="http://www.w3.org/2000/svg" xmlns:xlink="http://www.w3.org/1999/xlink" viewBox="0 0 48 48" shape-rendering="geometricPrecision" text-rendering="geometricPrecision" style="background-color:#5a82a4"><rect width="28" height="38" rx="4" ry="4" transform="translate(10 5)" fill="#fff" stroke-width="0"/><rect width="22" height="8" rx="2" ry="2" transform="translate(13 8)" fill="#5a82a4" stroke-width="0"/><rect width="5" height="5" rx="1" ry="1" transform="translate(13 19.10576)" fill="#5a82a4" stroke-width="0"/><rect width="5" height="5" rx="1" ry="1" transform="translate(21.5 19.10576)" fill="#5a82a4" stroke-width="0"/><rect width="5" height="5" rx="1" ry="1" transform="translate(30 19.10576)" fill="#5a82a4" stroke-width="0"/><rect width="5" height="4.49799" rx="1" ry="1" transform="matrix(1 0 0 2.89018 30 27)" fill="#5a82a4" stroke-width="0"/><rect width="5" height="5" rx="1" ry="1" transform="translate(21.5 27)" fill="#5a82a4" stroke-width="0"/><rect width="5" height="5" rx="1" ry="1" transform="translate(21.5 35)" fill="#5a82a4" stroke-width="0"/><rect width="5" height="5" rx="1" ry="1" transform="translate(13 27)" fill="#5a82a4" stroke-width="0"/><rect width="5" height="5" rx="1" ry="1" transform="translate(13 35)" fill="#5a82a4" stroke-width="0"/></svg>
